<svg viewBox="0 0 24 24" fill="currentColor" xmlns="http://www.w3.org/2000/svg">
  <path d="M22.46 5.924c-.793.352-1.646.59-2.54.698a4.48 4.48 0 0 0 1.963-2.475 8.94 8.94 0 0 1-2.828 1.082A4.48 4.48 0 0 0 11.2 9.03a12.72 12.72 0 0 1-9.24-4.685 4.48 4.48 0 0 0 1.39 5.98A4.44 4.44 0 0 1 2 9.13v.057a4.48 4.48 0 0 0 3.6 4.39 4.48 4.48 0 0 1-2.02.077 4.48 4.48 0 0 0 4.18 3.11A8.98 8.98 0 0 1 2 19.54a12.7 12.7 0 0 0 6.88 2.02c8.26 0 12.78-6.84 12.78-12.78 0-.195-.004-.39-.013-.583A9.18 9.18 0 0 0 24 4.59a8.93 8.93 0 0 1-2.54.698z"/>
</svg>
